<?xml version='1.0' encoding='iso-8859-1'?>
<svg version="1.1" xmlns="http://www.w3.org/2000/svg" viewBox="0 0 31.9 31.9" xmlns:xlink="http://www.w3.org/1999/xlink" enable-background="new 0 0 31.9 31.9">
  <path d="m26.75,17.2h-1.9c-1.6,0-2.9-1.3-2.9-2.9v-11c0-1.8-1.5-3.3-3.3-3.3h-5.4c-1.8,0-3.3,1.5-3.3,3.3v11c0,1.6-1.3,2.9-2.9,2.9h-1.9c-1.3,0-2.1,1-2.1,2.1 0,0.5 0.2,1.1 0.6,1.5l10.2,10.2c0.6,0.6 1.4,0.9 2.1,0.9s1.5-0.3 2.1-0.9l10.2-10.2c0.4-0.4 0.6-1 0.6-1.5 0-1-0.9-2.1-2.1-2.1zm-10.9,9.8c-2.6,0-7.5-4.4-9-6.6-0.5-0.7 0.1-1.2 0.6-1.2 0.8,0 0.8,0 1.3,0 1.8,0 3.1-1.3 3.1-3v-11.5c0-1.5 1.2-2.7 2.7-2.7h2.6c1.5,0 2.7,1.2 2.7,2.7v11.7c0,1.7 1.4,2.8 3,2.8 2.8,0-2.9,7.8-7,7.8z"/>
</svg>
