<?xml version="1.0" encoding="iso-8859-1"?>
<svg xmlns="http://www.w3.org/2000/svg" xmlns:xlink="http://www.w3.org/1999/xlink" version="1.1" viewBox="0 0 32 32" enable-background="new 0 0 32 32" width="512px" height="512px">
  <g>
    <path d="M26.4,4.6C26,4.2,25.5,4,25,4s-1,0.2-1.4,0.6c-0.8,0.8-0.8,2,0,2.8C26.2,10,29,13.3,29,17   c0,7.8-15.3,15-21.3,10C4.8,24.6,3,21,3,17c0-3.7,2.8-7,5.4-9.6c0.8-0.8,0.8-2,0-2.8C8,4.2,7.5,4,7,4S6,4.2,5.6,4.6   C2.5,7.7,1,12.6,1,17c0,8.3,6.7,15,15,15s15-6.7,15-15C31,12.6,29.5,7.7,26.4,4.6z" fill="#91DC5A"/>
    <path d="m16,11c1.1,0 2-0.9 2-2 0-1.7-1-3.3-1-5v-3c0-0.6-0.4-1-1-1s-1,0.4-1,1v3c0,1.7-1,3.3-1,5 0,1.1 0.9,2 2,2z" fill="#91DC5A"/>
  </g>
</svg>
