<?xml version="1.0" encoding="iso-8859-1"?>
<!-- Generator: Adobe Illustrator 19.0.0, SVG Export Plug-In . SVG Version: 6.00 Build 0)  -->
<svg version="1.1" id="Layer_1" xmlns="http://www.w3.org/2000/svg" xmlns:xlink="http://www.w3.org/1999/xlink" x="0px" y="0px"
	 viewBox="0 0 512 512" style="enable-background:new 0 0 512 512;" xml:space="preserve">
<path style="fill:#334F55;" d="M491.245,401.297h-9.225V336.72c0-5.095-4.131-9.225-9.225-9.225H352.865
	c-5.095,0-9.225,4.131-9.225,9.225h-46.126V226.017c0-5.095-4.131-9.225-9.225-9.225v-9.189c1.805,0.158,5.248,0.396,9.815,0.396
	c15.472,0,42.352-3.028,52.43-21.744c14.791,7.913,28.935,12.087,39.233,12.087c50.87,0,92.253-41.383,92.253-92.253
	s-41.383-92.253-92.253-92.253c-44.595,0-108.136-13.496-108.771-13.635c-2.617-0.554-5.365,0.054-7.505,1.671
	c-2.14,1.622-3.468,4.095-3.635,6.775c-0.14,2.252-2.674,46.313,9.181,88.217h-55.299c11.855-41.903,9.321-85.964,9.181-88.217
	c-0.167-2.68-1.495-5.153-3.635-6.775c-2.135-1.617-4.878-2.221-7.505-1.671c-0.635,0.14-64.14,13.635-108.771,13.635
	c-50.87,0-92.253,41.383-92.253,92.253s41.383,92.253,92.253,92.253c12.91,0,31.853-6.488,50.558-18.803
	c6.309,7.582,22.842,23.947,48.199,23.947c0.874,0,1.826-0.158,2.721-0.197v13.504c-5.095,0-9.225,4.131-9.225,9.225V336.72H168.36
	c0-5.095-4.131-9.225-9.225-9.225H39.206c-5.095,0-9.225,4.131-9.225,9.225v64.577h-9.225c-5.095,0-9.225,4.131-9.225,9.225v92.253
	c0,5.095,4.131,9.225,9.225,9.225h470.489c5.095,0,9.225-4.131,9.225-9.225v-92.253C500.47,405.427,496.339,401.297,491.245,401.297
	z M289.239,124.003c11.044,22.43,28.084,40.093,45.755,52.605c-5.159,12.35-33.028,13.787-45.795,12.553l-0.91-0.089v-9.181v-36.901
	v-21.108C288.618,122.581,288.898,123.31,289.239,124.003z M178.352,168.476c13.73-11.653,26.366-26.564,35.184-44.473
	c0.341-0.693,0.621-1.421,0.95-2.122v21.108v36.901v4.993C195.88,186.048,183.286,174.206,178.352,168.476z"/>
<path style="fill:#D8D8D8;" d="M389.767,32.286c40.694,0,73.802,33.108,73.802,73.802s-33.108,73.802-73.802,73.802
	c-18.302,0-63.275-21.996-83.978-64.041c-15.897-32.284-17.811-75.635-17.77-95.419C308.599,24.39,354.113,32.286,389.767,32.286z"
	/>
<path style="fill:#334F55;" d="M348.253,133.764c27.978,0,50.739-22.761,50.739-50.739s-22.761-50.739-50.739-50.739
	s-50.739,22.761-50.739,50.739S320.275,133.764,348.253,133.764z"/>
<path style="fill:#63CB6B;" d="M348.253,50.736c17.802,0,32.288,14.486,32.288,32.288s-14.486,32.288-32.288,32.288
	s-32.288-14.486-32.288-32.288S330.451,50.736,348.253,50.736z"/>
<path style="fill:#D8D8D8;" d="M39.206,106.088c0-40.694,33.108-73.802,73.802-73.802c35.658,0,81.181-7.896,101.753-11.856
	c0.054,19.761-1.847,63.068-17.775,95.419c-20.703,42.045-65.676,64.041-83.978,64.041C72.315,179.89,39.206,146.782,39.206,106.088
	z"/>
<path style="fill:#334F55;" d="M348.253,106.088c12.716,0,23.063-10.347,23.063-23.063s-10.347-23.063-23.063-23.063
	S325.19,70.309,325.19,83.025S335.536,106.088,348.253,106.088z"/>
<circle style="fill:#63CB6B;" cx="348.253" cy="83.025" r="4.613"/>
<path style="fill:#334F55;" d="M205.261,83.025c0-27.978-22.761-50.739-50.739-50.739s-50.739,22.761-50.739,50.739
	s22.761,50.739,50.739,50.739S205.261,111.003,205.261,83.025z"/>
<path style="fill:#63CB6B;" d="M154.522,115.313c-17.802,0-32.288-14.486-32.288-32.288s14.486-32.288,32.288-32.288
	s32.288,14.486,32.288,32.288S172.324,115.313,154.522,115.313z"/>
<path style="fill:#334F55;" d="M154.522,59.962c-12.716,0-23.063,10.347-23.063,23.063s10.347,23.063,23.063,23.063
	c12.716,0,23.063-10.347,23.063-23.063S167.238,59.962,154.522,59.962z"/>
<circle style="fill:#63CB6B;" cx="154.522" cy="83.025" r="4.613"/>
<rect x="362.091" y="345.948" style="fill:#C59A83;" width="101.478" height="55.352"/>
<g>
	<rect x="232.937" y="152.215" style="fill:#FFFFFF;" width="36.901" height="18.451"/>
	<rect x="232.937" y="115.314" style="fill:#FFFFFF;" width="36.901" height="18.451"/>
	<rect x="232.937" y="189.116" style="fill:#FFFFFF;" width="36.901" height="27.676"/>
</g>
<rect x="223.712" y="235.244" style="fill:#C59A83;" width="55.352" height="101.478"/>
<polygon style="fill:#D8D8D8;" points="214.486,355.17 288.289,355.17 343.64,355.17 343.64,401.297 168.36,401.297 168.36,355.17 
	"/>
<g>
	<rect x="48.432" y="345.948" style="fill:#C59A83;" width="101.478" height="55.352"/>
	<polygon style="fill:#C59A83;" points="482.019,493.549 29.981,493.549 29.981,419.747 39.206,419.747 159.135,419.747 
		352.865,419.747 472.794,419.747 482.019,419.747 	"/>
</g>
<g>
	<rect x="352.865" y="428.975" style="fill:#334F55;" width="110.703" height="18.451"/>
	<rect x="352.865" y="456.651" style="fill:#334F55;" width="110.703" height="18.451"/>
	<path style="fill:#334F55;" d="M306.739,428.973c-15.261,0-27.676,12.414-27.676,27.676s12.414,27.676,27.676,27.676
		c15.261,0,27.676-12.414,27.676-27.676S322,428.973,306.739,428.973z"/>
</g>
<circle style="fill:#C59A83;" cx="306.739" cy="456.651" r="9.225"/>
<g>
</g>
<g>
</g>
<g>
</g>
<g>
</g>
<g>
</g>
<g>
</g>
<g>
</g>
<g>
</g>
<g>
</g>
<g>
</g>
<g>
</g>
<g>
</g>
<g>
</g>
<g>
</g>
<g>
</g>
</svg>
