<?xml version='1.0' encoding='iso-8859-1'?>
<svg version="1.1" xmlns="http://www.w3.org/2000/svg" viewBox="0 0 31.9 31.9" xmlns:xlink="http://www.w3.org/1999/xlink" enable-background="new 0 0 31.9 31.9">
  <path d="m15.95,2c0.2,0 0.5,0 0.7,0.3 0,0 6.1,6.1 8,8 0.8,0.8 0.7,2.5-1.9,2.5-1.6,0-2.8,1.3-2.8,2.8 0,0 0,7.6 0,10.1 0,2.8-8,4.7-8,1.6 0-2.9 0-11.8 0-11.8 0-1.6-1.3-2.8-2.8-2.8 0,0-1.7,0-2.5,0s-1.1-0.8-0.5-1.4c2.4-2.4 9.1-9.1 9.1-9.1 0.2-0.2 0.5-0.2 0.7-0.2m0-2c-0.8,0-1.5,0.3-2.1,0.9l-10.2,10.2c-0.4,0.4-0.6,1-0.6,1.5 0,1.1 0.9,2.1 2.1,2.1h1.9c1.6,0 2.9,1.3 2.9,2.9v11c0,1.8 1.5,3.3 3.3,3.3h5.4c1.8,0 3.3-1.5 3.3-3.3v-11c0-1.6 1.3-2.9 2.9-2.9h1.9c1.3,0 2.1-1 2.1-2.1 0-0.5-0.2-1.1-0.6-1.5l-10.2-10.2c-0.6-0.6-1.3-0.9-2.1-0.9z"/>
</svg>
