<?xml version='1.0' encoding='iso-8859-1'?>
<svg version="1.1" xmlns="http://www.w3.org/2000/svg" viewBox="0 0 31.9 31.9" xmlns:xlink="http://www.w3.org/1999/xlink" enable-background="new 0 0 31.9 31.9">
  <path d="m20.8,6.55l5.7,5.7c2,2.1 2,5.4 0,7.5l-1.3,1.3c-1.5,1.5-6,4.7-6.1,2 0-1.7-1.3-3.1-3-3.1h-9.6c-2,0-3.6-1.6-3.6-3.6v-0.8c0-2 1.6-3.6 3.6-3.6h9.6c1.7,0 3-1.3 3-3v-1.8c0-0.8 1.1-1.2 1.7-0.6zm-1.5-3.5c-1.1,0-2.1,0.9-2.1,2.1v1.9c0,1.6-1.3,2.9-2.9,2.9h-11c-1.8,0-3.3,1.5-3.3,3.3v5.4c0,1.8 1.5,3.3 3.3,3.3h11c1.6,0 2.9,1.3 2.9,2.9v1.9c0,1.3 1,2.1 2.1,2.1 0.5,0 1.1-0.2 1.5-0.6l10.2-10.2c0.6-0.6 0.9-1.4 0.9-2.1 0-0.8-0.3-1.5-0.9-2.1l-10.2-10.2c-0.5-0.4-1-0.6-1.5-0.6z"/>
</svg>
