<?xml version='1.0' encoding='iso-8859-1'?>
<svg version="1.1" xmlns="http://www.w3.org/2000/svg" viewBox="0 0 32 32" xmlns:xlink="http://www.w3.org/1999/xlink" enable-background="new 0 0 32 32">
  <g>
    <circle cx="16" cy="26" r="3"/>
    <path d="M30.4,6.9C27.5,5.5,22.6,3,16,3C9.4,3,4.5,5.5,1.6,6.9C0.5,7.4,0,8.1,0,9c0,1.1,0.9,2,2,2   c0.7,0,1.3-0.4,1.7-1c1.4-2,3-3.4,5.4-4.1c2-0.6,4.3-1,6.9-1c2.6,0,4.9,0.4,6.9,1c2.4,0.7,4,2.1,5.4,4.1c0.4,0.6,1,1,1.7,1   c1.1,0,2-0.9,2-2C32,8.1,31.5,7.4,30.4,6.9z"/>
    <path d="m26.1,16.3c-0.9-0.6-5.1-3.3-10.1-3.3s-9.2,2.7-10.1,3.3c-0.5,0.4-0.9,1-0.9,1.7 0,1.1 0.9,2 2,2 0.9,0 1.6-0.6 1.9-1.3 0.4-1.1 1.7-2.7 3.5-3.2 1.1-0.3 2.3-0.5 3.6-0.5s2.6,0.2 3.6,0.5c1.8,0.5 3.1,2.1 3.5,3.2 0.3,0.8 1,1.3 1.9,1.3 1.1,0 2-0.9 2-2 0-0.7-0.4-1.3-0.9-1.7z"/>
  </g>
</svg>
